<?xml version="1.0" encoding="UTF-8"?>
<svg width="144px" height="36px" viewBox="0 0 144 36" version="1.1" xmlns="http://www.w3.org/2000/svg" xmlns:xlink="http://www.w3.org/1999/xlink">
    <title>logo-login</title>
    <defs>
        <radialGradient cx="50%" cy="0%" fx="50%" fy="0%" r="100%" gradientTransform="translate(0.500000,0.000000),scale(0.999479,1.000000),rotate(90.000000),translate(-0.500000,-0.000000)" id="radialGradient-1">
            <stop stop-color="#FF3EB7" offset="0%"></stop>
            <stop stop-color="#82F2FF" offset="100%"></stop>
        </radialGradient>
    </defs>
    <g id="login" stroke="none" stroke-width="1" fill="none" fill-rule="evenodd">
        <g id="login-mobile" transform="translate(-135.000000, -85.000000)">
            <g id="logo-login" transform="translate(135.000000, 85.000000)">
                <path d="M63.5581032,28.5 C71.4822303,28.5 76.5548723,24.54 76.5548723,18 C76.5548723,11.46 71.4822303,7.5 63.5581032,7.5 L52.3922876,7.5 L52.3922876,28.5 L63.5581032,28.5 Z M63.1979156,24.42 L57.194789,24.42 L57.194789,11.58 L63.1979156,11.58 C68.2405419,11.58 71.6623241,13.68 71.6623241,18 C71.6623241,22.32 68.2405419,24.42 63.1979156,24.42 Z M90.0919229,29.16 C93.9039083,29.16 96.875456,28.26 99.1866597,26.22 L96.6953622,23.49 C94.9844711,24.87 93.1835331,25.62 90.3320479,25.62 C86.4900469,25.62 84.2388744,24.27 83.8186555,21.3 L99.6669098,21.3 C99.7569567,21.03 99.7869724,20.76 99.7869724,20.22 C99.7869724,14.37 95.7648775,11.31 89.7617509,11.31 C83.2483585,11.31 79.3463262,14.73 79.3463262,20.25 C79.3463262,25.74 83.2783742,29.16 90.0919229,29.16 Z M84.028765,18.33 C84.6891089,15.99 86.7601876,14.85 89.7917665,14.85 C92.7332986,14.85 94.6242835,15.9 95.3446587,18.27 L84.028765,18.33 Z M112.72371,29.16 C117.496196,29.16 120.647837,27.12 122.028557,24.54 L117.766337,22.83 C116.745805,24.72 114.85482,25.41 112.753726,25.41 C109.301928,25.41 106.750599,23.67 106.750599,20.25 C106.750599,16.77 109.301928,15.06 112.753726,15.06 C114.85482,15.06 116.685774,15.72 117.646274,17.55 L121.93851,15.87 C120.557791,13.35 117.436165,11.31 112.72371,11.31 C106.240334,11.31 102.248254,14.76 102.248254,20.25 C102.248254,25.71 106.240334,29.16 112.72371,29.16 Z M131.753622,29.1 C134.935279,29.1 137.366545,27.9 138.627202,26.52 L138.627202,26.55 C138.627202,27.15 138.867327,27.9 139.227514,28.5 L144,28.5 C143.459719,27.54 143.249609,26.55 143.249609,25.35 L143.249609,19.26 C143.249609,14.13 139.617718,11.34 133.584575,11.34 C130.643043,11.34 127.401355,12.06 125.240229,13.17 L126.620948,16.23 C128.60198,15.15 130.402918,14.85 132.654091,14.85 C136.616154,14.85 138.627202,16.17 138.627202,19.23 L138.627202,20.31 C137.366545,18.9 134.935279,17.73 131.753622,17.73 C128.211777,17.73 123.619385,19.11 123.619385,23.4 C123.619385,27.69 128.211777,29.1 131.753622,29.1 Z M132.894216,26.07 C130.973215,26.07 128.151746,25.59 128.151746,23.4 C128.151746,21.21 130.973215,20.76 132.894216,20.76 C135.025326,20.76 137.486608,21.24 138.717249,23.19 L138.717249,23.61 C137.486608,25.56 135.025326,26.07 132.894216,26.07 Z" id="Deca" fill="#37373C" fill-rule="nonzero"></path>
                <ellipse id="Oval" fill="url(#radialGradient-1)" cx="18.0093799" cy="18" rx="18.0093799" ry="18"></ellipse>
            </g>
        </g>
    </g>
</svg>