<?xml version="1.0" encoding="UTF-8"?>
<svg width="96px" height="24px" viewBox="0 0 96 24" version="1.1" xmlns="http://www.w3.org/2000/svg" xmlns:xlink="http://www.w3.org/1999/xlink">
    <title>navbar-logo</title>
    <defs>
        <radialGradient cx="50%" cy="0%" fx="50%" fy="0%" r="100%" gradientTransform="translate(0.500000,0.000000),scale(0.999479,1.000000),rotate(90.000000),translate(-0.500000,-0.000000)" id="radialGradient-1">
            <stop stop-color="#FF3EB7" offset="0%"></stop>
            <stop stop-color="#82F2FF" offset="100%"></stop>
        </radialGradient>
    </defs>
    <g id="home" stroke="none" stroke-width="1" fill="none" fill-rule="evenodd">
        <g transform="translate(-150.000000, -20.000000)" id="navbar-logo">
            <g transform="translate(150.000000, 20.000000)">
                <path d="M42.3720688,19 C47.6548202,19 51.0365816,16.36 51.0365816,12 C51.0365816,7.64 47.6548202,5 42.3720688,5 L34.9281918,5 L34.9281918,19 L42.3720688,19 Z M42.1319437,16.28 L38.1298593,16.28 L38.1298593,7.72 L42.1319437,7.72 C45.4936946,7.72 47.7748828,9.12 47.7748828,12 C47.7748828,14.88 45.4936946,16.28 42.1319437,16.28 Z M60.0612819,19.44 C62.6026055,19.44 64.5836373,18.84 66.1244398,17.48 L64.4635748,15.66 C63.3229807,16.58 62.1223554,17.08 60.2213653,17.08 C57.6600313,17.08 56.1592496,16.18 55.8791037,14.2 L66.4446066,14.2 C66.5046378,14.02 66.5246483,13.84 66.5246483,13.48 C66.5246483,9.58 63.8432517,7.54 59.8411673,7.54 C55.4989057,7.54 52.8975508,9.82 52.8975508,13.5 C52.8975508,17.16 55.5189161,19.44 60.0612819,19.44 Z M56.0191767,12.22 C56.4594059,10.66 57.8401251,9.9 59.8611777,9.9 C61.8221991,9.9 63.0828557,10.6 63.5631058,12.18 L56.0191767,12.22 Z M75.1491402,19.44 C78.3307973,19.44 80.4318916,18.08 81.352371,16.36 L78.5108911,15.22 C77.8305367,16.48 76.5698801,16.94 75.1691506,16.94 C72.8679521,16.94 71.1670662,15.78 71.1670662,13.5 C71.1670662,11.18 72.8679521,10.04 75.1691506,10.04 C76.5698801,10.04 77.7905159,10.48 78.4308494,11.7 L81.2923398,10.58 C80.3718603,8.9 78.2907764,7.54 75.1491402,7.54 C70.826889,7.54 68.1655029,9.84 68.1655029,13.5 C68.1655029,17.14 70.826889,19.44 75.1491402,19.44 Z M87.8357478,19.4 C89.9568525,19.4 91.5776967,18.6 92.4181344,17.68 L92.4181344,17.7 C92.4181344,18.1 92.5782178,18.6 92.8183429,19 L96,19 C95.6398124,18.36 95.4997394,17.7 95.4997394,16.9 L95.4997394,12.84 C95.4997394,9.42 93.0784784,7.56 89.0563835,7.56 C87.0953622,7.56 84.9342366,8.04 83.4934862,8.78 L84.4139656,10.82 C85.7346535,10.1 86.9352788,9.9 88.4360604,9.9 C91.0774362,9.9 92.4181344,10.78 92.4181344,12.82 L92.4181344,13.54 C91.5776967,12.6 89.9568525,11.82 87.8357478,11.82 C85.474518,11.82 82.4129234,12.74 82.4129234,15.6 C82.4129234,18.46 85.474518,19.4 87.8357478,19.4 Z M88.5961438,17.38 C87.3154768,17.38 85.4344971,17.06 85.4344971,15.6 C85.4344971,14.14 87.3154768,13.84 88.5961438,13.84 C90.0168838,13.84 91.6577384,14.16 92.4781657,15.46 L92.4781657,15.74 C91.6577384,17.04 90.0168838,17.38 88.5961438,17.38 Z" id="Deca" fill="#37373C" fill-rule="nonzero"></path>
                <ellipse id="Oval" fill="url(#radialGradient-1)" cx="12.0062533" cy="12" rx="12.0062533" ry="12"></ellipse>
            </g>
        </g>
    </g>
</svg>